#!OML:ASF F:\VICON\USERDATA\INSTALL\Justin_Nancy\Justin_Nancy.ASF
:FULLY-SPECIFIED
:DEGREES
472
root 0.559932 17.1876 25.5744 -1.13547 -2.31006 5.96647
lowerback 6.66624 0.405363 -4.68506
upperback 0.0465888 0.186593 0.243771
thorax -3.71063 0.179217 2.86781
lowerneck -15.57 -3.17037 -9.47825
upperneck 21.9137 -3.25188 5.28083
head 9.76696 -1.70849 3.00906
rclavicle -8.39865e-015 8.74653e-015
rhumerus -36.7816 -23.8931 -73.1058
rradius 27.7225
rwrist 9.78593
rhand -16.802 12.6872
rfingers 7.12502
rthumb 9.42634 -17.082
lclavicle -8.39865e-015 8.74653e-015
lhumerus -30.8563 14.0148 82.3836
lradius 25.4137
lwrist -10.3831
lhand -11.7322 26.8372
lfingers 7.12502
lthumb 14.3151 56.3237
rfemur -30.1014 -5.17776 16.7475
rtibia 69.1577
rfoot -8.73305 -6.22073
rtoes -5.31254
lfemur -8.31297 -2.35769 -31.02
ltibia 30.542
lfoot -16.0258 -1.64944
ltoes 3.27317
473
root 0.548015 17.1775 25.7332 -1.03394 -2.12989 5.88804
lowerback 6.75237 0.316498 -4.6473
upperback 0.0270211 0.0679717 0.290882
thorax -3.76932 0.121802 2.90732
lowerneck -15.6901 -3.18721 -9.47244
upperneck 21.9267 -3.24873 5.21397
head 9.79304 -1.71267 2.98427
rclavicle 7.60351e-015 3.97569e-015
rhumerus -37.1569 -24.1238 -72.8876
rradius 27.4534
rwrist 10.2111
rhand -16.4734 12.0727
rfingers 7.12502
rthumb 9.7434 -17.6819
lclavicle 7.60351e-015 3.97569e-015
lhumerus -30.2721 13.667 82.5232
lradius 25.4611
lwrist -10.7145
lhand -11.5666 26.8984
lfingers 7.12502
lthumb 14.4746 56.3736
rfemur -31.0118 -5.09752 16.9905
rtibia 67.5066
rfoot -9.27234 -6.63439
rtoes -6.62754
lfemur -7.79159 -2.10057 -30.9167
ltibia 30.5795
lfoot -16.5493 -1.86999
ltoes 3.57161
474
root 0.533202 17.1662 25.8921 -0.842639 -2.10543 5.86403
lowerback 6.7211 0.257636 -4.70189
upperback -0.0474177 -0.0141854 0.308177
thorax -3.82231 0.0848183 2.96423
lowerneck -15.5776 -3.29869 -9.53125
upperneck 21.8012 -3.4084 5.25515
head 9.74286 -1.78689 2.98599
rclavicle -5.2181e-015 -8.74653e-015
rhumerus -37.7893 -24.0129 -72.8587
rradius 27.6248
rwrist 10.2814
rhand -16.299 11.9514
rfingers 7.12502
rthumb 9.91168 -17.7952
lclavicle -5.2181e-015 -8.74653e-015
lhumerus -29.6799 13.1288 82.6783
lradius 25.4209
lwrist -10.5944
lhand -11.9496 26.3338
lfingers 7.12502
lthumb 14.1056 55.835
rfemur -31.8831 -4.77254 17.1522
rtibia 65.5484
rfoot -9.64699 -6.96333
rtoes -7.65773
lfemur -7.28467 -1.79196 -30.8809
ltibia 30.3898
lfoot -16.8973 -1.83641
ltoes 2.32956
475
root 0.518941 17.161 26.061 -0.768757 -1.97186 5.90013
lowerback 6.93275 0.151501 -4.85094
upperback -0.19838 -0.18069 0.356254
thorax -4.08411 0.0149091 3.11641
lowerneck -15.0463 -3.5393 -9.87036
upperneck 21.3879 -3.7645 5.5113
head 9.54026 -1.95394 3.08336
rclavicle -1.21756e-015 8.74653e-015
rhumerus -38.4154 -23.7761 -72.732
rradius 27.6596
rwrist 10.526
rhand -16.312 11.0335
rfingers 7.12502
rthumb 9.89914 -18.7138
lclavicle -1.21756e-015 8.74653e-015
lhumerus -29.4344 12.8732 82.7882
lradius 25.7242
lwrist -10.5401
lhand -12.1109 25.9116
lfingers 7.12502
lthumb 13.9501 55.4236
rfemur -32.4045 -4.4729 17.1511
rtibia 63.2783
rfoot -10.0025 -7.32623
rtoes -9.03613
lfemur -6.53454 -1.62922 -30.9219
ltibia 30.0214
lfoot -17.22 -1.78941
ltoes 1.40864
476
root 0.508912 17.1633 26.2415 -0.688211 -1.52927 6.21341
lowerback 6.77072 -0.0371895 -5.16391
upperback -0.122925 -0.447796 0.316465
thorax -3.8887 -0.118249 3.27666
lowerneck -14.9859 -3.54863 -10.0469
upperneck 21.1165 -3.77644 5.70222
head 9.44221 -1.95018 3.17511
rclavicle -3.60297e-015 1.43125e-014
rhumerus -38.5974 -24.1449 -72.4156
rradius 27.2102
rwrist 11.4236
rhand -16.1818 10.6714
rfingers 7.12502
rthumb 10.0247 -19.0698
lclavicle -3.60297e-015 1.43125e-014
lhumerus -28.9708 12.4784 83.0185
lradius 26.2849
lwrist -10.3977
lhand -12.0328 26.0467
lfingers 7.12502
lthumb 14.0254 55.5535
rfemur -32.7643 -4.69316 16.7584
rtibia 60.8174
rfoot -9.42853 -7.6438
rtoes -7.58829
lfemur -5.59115 -1.74816 -31.3183
ltibia 29.4259
lfoot -17.3183 -1.75804
ltoes 1.32977
477
root 0.499314 17.1634 26.419 -0.521284 -1.18812 6.48966
lowerback 6.36237 -0.188868 -5.44858
upperback 0.0707953 -0.64245 0.2937
thorax -3.43641 -0.226508 3.42597
lowerneck -15.4492 -3.44394 -9.99859
upperneck 21.1236 -3.57859 5.64467
head 9.51137 -1.85354 3.16981
rclavicle 1.43622e-014 3.97569e-015
rhumerus -38.6008 -24.4294 -72.2837
rradius 26.8029
rwrist 11.5744
rhand -16.581 10.8089
rfingers 7.12502
rthumb 9.63964 -18.9506
lclavicle 1.43622e-014 3.97569e-015
lhumerus -28.2738 11.964 83.355
lradius 26.824
lwrist -10.2067
lhand -12.1403 26.3126
lfingers 7.12502
lthumb 13.9218 55.8265
rfemur -33.1181 -4.80207 16.419
rtibia 58.1826
rfoot -8.3625 -8.2565
rtoes -4.24711
lfemur -4.61765 -1.63411 -31.6129
ltibia 28.6014
lfoot -17.3693 -2.00411
ltoes 1.42577
478
root 0.48931 17.1626 26.5967 -0.415233 -0.953416 6.73762
lowerback 6.31634 -0.290306 -5.68685
upperback 0.0598096 -0.795173 0.216863
thorax -3.40504 -0.299736 3.49326
lowerneck -15.7396 -3.48278 -9.79292
upperneck 21.294 -3.62363 5.48753
head 9.62227 -1.87339 3.07457
rclavicle 1.98785e-016 8.74653e-015
rhumerus -39.0034 -24.4771 -72.1838
rradius 26.4581
rwrist 11.3246
rhand -17.1955 11.3209
rfingers 7.12502
rthumb 9.04668 -18.4651
lclavicle 1.98785e-016 8.74653e-015
lhumerus -28.0015 11.1644 83.5164
lradius 27.4206
lwrist -9.77684
lhand -12.2432 26.564
lfingers 7.12502
lthumb 13.8226 56.0847
rfemur -33.3051 -4.82523 16.1031
rtibia 55.3758
rfoot -8.08416 -8.98676
rtoes -3.53062
lfemur -3.51878 -1.41495 -31.8593
ltibia 27.6691
lfoot -17.472 -2.2103
ltoes 0.925663
479
root 0.479958 17.1665 26.7744 -0.305205 -0.633445 6.93975
lowerback 6.42478 -0.425461 -5.84348
upperback -0.059108 -0.999639 0.164829
thorax -3.56754 -0.391539 3.54834
lowerneck -15.788 -3.34435 -9.63954
upperneck 21.4068 -3.43735 5.35908
head 9.64939 -1.7896 3.02988
rclavicle 5.46658e-016 2.54444e-014
rhumerus -39.5346 -24.6674 -71.8572
rradius 26.3083
rwrist 11.7452
rhand -16.9881 10.8139
rfingers 7.12502
rthumb 9.24683 -18.9634
lclavicle 5.46658e-016 2.54444e-014
lhumerus -27.8348 10.6192 83.6267
lradius 27.9278
lwrist -9.47529
lhand -12.3784 26.4853
lfingers 7.12502
lthumb 13.6923 56.0149
rfemur -33.4268 -4.792 15.7776
rtibia 52.3594
rfoot -7.98898 -9.4357
rtoes -3.89755
lfemur -2.49985 -1.39689 -32.0777
ltibia 26.8477
lfoot -17.5322 -2.28282
ltoes 0.248024
480
root 0.465067 17.1709 26.9454 -0.045419 -0.396349 6.93598
lowerback 6.23868 -0.532949 -5.89611
upperback -0.0589596 -1.13211 0.221291
thorax -3.44683 -0.459734 3.64509
lowerneck -15.7729 -3.33875 -9.77408
upperneck 21.1922 -3.42283 5.49826
head 9.57477 -1.7755 3.10043
rclavicle 3.18055e-015 -7.15625e-015
rhumerus -39.8532 -24.9548 -71.5619
rradius 26.3559
rwrist 12.3064
rhand -16.5343 10.1877
rfingers 7.12502
rthumb 9.68464 -19.5697
lclavicle 3.18055e-015 -7.15625e-015
lhumerus -27.2802 10.3793 83.8222
lradius 28.3144
lwrist -9.58346
lhand -12.3329 26.6626
lfingers 7.12502
lthumb 13.7362 56.1892
rfemur -33.608 -4.53251 15.6951
rtibia 49.1254
rfoot -7.34414 -9.76233
rtoes -4.53112
lfemur -1.73235 -1.36844 -32.0252
ltibia 26.1214
lfoot -17.579 -2.19168
ltoes -0.323934
